<?xml version="1.0" encoding="UTF-8" standalone="no"?>
<!-- Created with Inkscape (http://www.inkscape.org/) -->

<svg
   xmlns:dc="http://purl.org/dc/elements/1.1/"
   xmlns:cc="http://creativecommons.org/ns#"
   xmlns:rdf="http://www.w3.org/1999/02/22-rdf-syntax-ns#"
   xmlns:svg="http://www.w3.org/2000/svg"
   xmlns="http://www.w3.org/2000/svg"
   xmlns:xlink="http://www.w3.org/1999/xlink"
   xmlns:sodipodi="http://sodipodi.sourceforge.net/DTD/sodipodi-0.dtd"
   xmlns:inkscape="http://www.inkscape.org/namespaces/inkscape"
   width="744.09448819"
   height="1052.3622047"
   id="svg2"
   version="1.1"
   inkscape:version="0.48.4 r9939"
   sodipodi:docname="drawing.svg">
  <defs
     id="defs4">
    <linearGradient
       inkscape:collect="always"
       xlink:href="#linearGradient3778"
       id="linearGradient4304"
       gradientUnits="userSpaceOnUse"
       spreadMethod="reflect"
       x1="8"
       y1="756.67908"
       x2="90.679848"
       y2="873.46704" />
    <linearGradient
       id="linearGradient3778">
      <stop
         style="stop-color:#e9b515;stop-opacity:1;"
         offset="0"
         id="stop3780" />
      <stop
         id="stop3786"
         offset="0.80930263"
         style="stop-color:#eec64b;stop-opacity:1;" />
      <stop
         style="stop-color:#ffffff;stop-opacity:1;"
         offset="1"
         id="stop3782" />
    </linearGradient>
  </defs>
  <sodipodi:namedview
     id="base"
     pagecolor="#ffffff"
     bordercolor="#666666"
     borderopacity="1.0"
     inkscape:pageopacity="0.0"
     inkscape:pageshadow="2"
     inkscape:zoom="0.49497475"
     inkscape:cx="743.70568"
     inkscape:cy="520"
     inkscape:document-units="px"
     inkscape:current-layer="layer1"
     showgrid="false"
     inkscape:window-width="1364"
     inkscape:window-height="750"
     inkscape:window-x="0"
     inkscape:window-y="0"
     inkscape:window-maximized="0" />
  <metadata
     id="metadata7">
    <rdf:RDF>
      <cc:Work
         rdf:about="">
        <dc:format>image/svg+xml</dc:format>
        <dc:type
           rdf:resource="http://purl.org/dc/dcmitype/StillImage" />
        <dc:title />
      </cc:Work>
    </rdf:RDF>
  </metadata>
  <g
     inkscape:label="Layer 1"
     inkscape:groupmode="layer"
     id="layer1">
    <g
       id="g4796"
       transform="matrix(0,1.4551064,-1.4551064,0,852.80461,-53.268077)">
      <text
         sodipodi:linespacing="125%"
         id="text2987"
         y="88.3992"
         x="83.725647"
         style="font-size:23.81289864px;font-style:normal;font-variant:normal;font-weight:normal;font-stretch:normal;text-align:start;line-height:125%;letter-spacing:0px;word-spacing:0px;writing-mode:lr-tb;text-anchor:start;fill:#000000;fill-opacity:1;stroke:none;font-family:DejaVu Sans;-inkscape-font-specification:DejaVu Sans"
         xml:space="preserve"><tspan
           y="88.3992"
           x="83.725647"
           id="tspan2997"
           sodipodi:role="line" /><tspan
           y="118.16532"
           x="83.725647"
           id="tspan2999"
           sodipodi:role="line" /><tspan
           y="147.93144"
           x="83.725647"
           id="tspan3001"
           sodipodi:role="line">authenticate:</tspan><tspan
           y="177.69757"
           x="83.725647"
           id="tspan3003"
           sodipodi:role="line">&lt;scan&gt; &lt;pin&gt;   </tspan><tspan
           y="207.4637"
           x="83.725647"
           id="tspan3005"
           sodipodi:role="line" /><tspan
           y="237.22981"
           x="83.725647"
           id="tspan3007"
           sodipodi:role="line">change pin:</tspan><tspan
           y="266.99594"
           x="83.725647"
           id="tspan3009"
           sodipodi:role="line">&lt;scan&gt; 999      &lt;pin&gt;     &lt;newpin&gt;     &lt;newpin&gt;</tspan><tspan
           id="tspan4790"
           y="296.76205"
           x="83.725647"
           sodipodi:role="line" /><tspan
           id="tspan4792"
           y="326.5282"
           x="83.725647"
           sodipodi:role="line">open mode:</tspan></text>
      <path
         d="m 282.72055,154.26922 c -1.90494,0 -3.47623,1.57084 -3.47623,3.47625 0,0.44245 0.12747,0.83821 0.28185,1.22133 -2.34168,0.90374 -4.07328,2.70052 -5.16739,4.79163 -1.29421,2.47343 -1.84773,5.2902 -1.84773,7.64147 0,4.16337 -4.19655,7.54737 -4.19655,7.54757 a 1.0121253,1.0121253 0 0 0 -0.40713,0.78289 l 0,3.82073 a 1.0121253,1.0121253 0 0 0 1.00217,1.03353 l 10.52268,0 c -0.0309,0.18259 -0.1879,0.30897 -0.1879,0.50109 0,1.9053 1.58385,3.44512 3.47623,3.44481 1.89239,0 3.47625,-1.53972 3.47625,-3.44481 0,-0.19223 -0.15704,-0.31829 -0.18791,-0.50109 l 10.49137,0 a 1.0121253,1.0121253 0 0 0 1.03348,-1.03353 l 0,-3.82073 a 1.0121253,1.0121253 0 0 0 -0.40713,-0.78289 c 0,0 -4.22786,-3.3842 -4.22786,-7.54757 0,-2.35127 -0.52221,-5.16804 -1.81642,-7.64147 -1.09411,-2.09111 -2.82571,-3.88759 -5.16738,-4.79163 0.15436,-0.38303 0.28185,-0.77888 0.28185,-1.22133 0,-1.90541 -1.57129,-3.47625 -3.47625,-3.47625 z m 0,2.00437 c 0.79883,0 1.44061,0.66904 1.44061,1.47188 0,0.39755 -0.17603,0.72145 -0.46976,1.00215 a 1.0121253,1.0121253 0 0 0 0.50108,1.72242 c 2.35412,0.48294 3.97007,2.11916 5.07343,4.22791 1.10338,2.10865 1.62851,4.67247 1.62851,6.70195 0,5.01721 3.91964,8.20188 4.60368,8.73754 l 0,2.4115 -10.86718,0 a 1.0121253,1.0121253 0 0 0 -0.78293,1.62851 c 0.19561,0.25204 0.31317,0.58516 0.31317,0.90826 0,0.80262 -0.62922,1.40923 -1.44061,1.40923 -0.81137,0 -1.4406,-0.60641 -1.4406,-1.40923 0,-0.3231 0.11756,-0.65622 0.31317,-0.90826 a 1.0121253,1.0121253 0 0 0 -0.81425,-1.62851 l -10.83585,0 0,-2.4115 c 0.68404,-0.53566 4.60367,-3.72033 4.60367,-8.73754 0,-2.02948 0.49382,-4.5933 1.59719,-6.70195 1.10336,-2.10875 2.75064,-3.74507 5.10475,-4.22791 a 1.0121253,1.0121253 0 0 0 0.46977,-1.72242 c -0.29373,-0.2807 -0.43845,-0.6046 -0.43845,-1.00215 0,-0.80284 0.64179,-1.47197 1.4406,-1.47188 z"
         style="fill:#000000;fill-opacity:1;stroke:none"
         id="path3970"
         inkscape:connector-curvature="0" />
      <path
         inkscape:connector-curvature="0"
         id="path4782"
         style="fill:#000000;fill-opacity:1;stroke:none"
         d="m 256.52637,243.5676 c -1.90495,0 -3.47625,1.57083 -3.47625,3.47623 0,0.44246 0.12749,0.83822 0.28186,1.22134 -2.34168,0.90375 -4.07328,2.70052 -5.16739,4.79163 -1.29421,2.47343 -1.84773,5.29021 -1.84773,7.64147 0,4.16338 -4.19654,7.54737 -4.19654,7.54757 a 1.0121253,1.0121253 0 0 0 -0.40713,0.78289 l 0,3.82073 a 1.0121253,1.0121253 0 0 0 1.00216,1.03353 l 10.52268,0 c -0.0309,0.1826 -0.18791,0.30897 -0.18791,0.50109 0,1.9053 1.58386,3.44512 3.47625,3.44482 1.89238,0 3.47624,-1.53972 3.47624,-3.44482 0,-0.19222 -0.15704,-0.31829 -0.18791,-0.50109 l 10.49137,0 a 1.0121253,1.0121253 0 0 0 1.03348,-1.03353 l 0,-3.82073 a 1.0121253,1.0121253 0 0 0 -0.40713,-0.78289 c 0,0 -4.22786,-3.38419 -4.22786,-7.54757 0,-2.35126 -0.52221,-5.16804 -1.81642,-7.64147 -1.0941,-2.09111 -2.82571,-3.88758 -5.16739,-4.79163 0.15437,-0.38303 0.28186,-0.77888 0.28186,-1.22134 0,-1.9054 -1.57129,-3.47623 -3.47624,-3.47623 z m 0,2.00436 c 0.79882,0 1.4406,0.66905 1.4406,1.47187 0,0.39756 -0.17603,0.72146 -0.46976,1.00217 a 1.0121253,1.0121253 0 0 0 0.50108,1.72241 c 2.35412,0.48294 3.97007,2.11917 5.07344,4.22791 1.10337,2.10865 1.62851,4.67247 1.62851,6.70195 0,5.01722 3.91963,8.20188 4.60367,8.73754 l 0,2.4115 -10.86717,0 a 1.0121253,1.0121253 0 0 0 -0.78295,1.62851 c 0.19562,0.25204 0.31318,0.58516 0.31318,0.90826 0,0.80262 -0.62923,1.40923 -1.4406,1.40923 -0.81138,0 -1.44062,-0.6064 -1.44062,-1.40923 0,-0.3231 0.11757,-0.65622 0.31318,-0.90826 a 1.0121253,1.0121253 0 0 0 -0.81425,-1.62851 l -10.83585,0 0,-2.4115 c 0.68404,-0.53566 4.60367,-3.72032 4.60367,-8.73754 0,-2.02948 0.49382,-4.5933 1.59719,-6.70195 1.10336,-2.10874 2.75064,-3.74507 5.10476,-4.22791 a 1.0121253,1.0121253 0 0 0 0.46975,-1.72241 c -0.29373,-0.28071 -0.43845,-0.60461 -0.43845,-1.00217 0,-0.80282 0.6418,-1.47196 1.44062,-1.47187 z" />
      <path
         d="m 373.20958,243.5676 c -1.90495,0 -3.47625,1.57083 -3.47625,3.47623 0,0.44246 0.12749,0.83822 0.28185,1.22134 -2.34167,0.90375 -4.07327,2.70052 -5.16738,4.79163 -1.29422,2.47343 -1.84773,5.29021 -1.84773,7.64147 0,4.16338 -4.19655,7.54737 -4.19655,7.54757 a 1.0121253,1.0121253 0 0 0 -0.40713,0.78289 l 0,3.82073 a 1.0121253,1.0121253 0 0 0 1.00216,1.03353 l 10.52268,0 c -0.0309,0.1826 -0.1879,0.30897 -0.1879,0.50109 0,1.9053 1.58385,3.44512 3.47625,3.44482 1.89238,0 3.47623,-1.53972 3.47623,-3.44482 0,-0.19222 -0.15704,-0.31829 -0.1879,-0.50109 l 10.49137,0 a 1.0121253,1.0121253 0 0 0 1.03348,-1.03353 l 0,-3.82073 a 1.0121253,1.0121253 0 0 0 -0.40713,-0.78289 c 0,0 -4.22787,-3.38419 -4.22787,-7.54757 0,-2.35126 -0.5222,-5.16804 -1.81642,-7.64147 -1.0941,-2.09111 -2.8257,-3.88758 -5.16738,-4.79163 0.15436,-0.38303 0.28185,-0.77888 0.28185,-1.22134 0,-1.9054 -1.57129,-3.47623 -3.47623,-3.47623 z m 0,2.00436 c 0.79882,0 1.4406,0.66905 1.4406,1.47187 0,0.39756 -0.17603,0.72146 -0.46977,1.00217 a 1.0121253,1.0121253 0 0 0 0.50109,1.72241 c 2.35411,0.48294 3.97006,2.11917 5.07343,4.22791 1.10337,2.10865 1.62851,4.67247 1.62851,6.70195 0,5.01722 3.91963,8.20188 4.60368,8.73754 l 0,2.4115 -10.86718,0 a 1.0121253,1.0121253 0 0 0 -0.78294,1.62851 c 0.19561,0.25204 0.31318,0.58516 0.31318,0.90826 0,0.80262 -0.62923,1.40923 -1.4406,1.40923 -0.81139,0 -1.44061,-0.6064 -1.44061,-1.40923 0,-0.3231 0.11756,-0.65622 0.31317,-0.90826 a 1.0121253,1.0121253 0 0 0 -0.81425,-1.62851 l -10.83586,0 0,-2.4115 c 0.68404,-0.53566 4.60367,-3.72032 4.60367,-8.73754 0,-2.02948 0.49383,-4.5933 1.5972,-6.70195 1.10336,-2.10874 2.75064,-3.74507 5.10475,-4.22791 a 1.0121253,1.0121253 0 0 0 0.46977,-1.72241 c -0.29374,-0.28071 -0.43845,-0.60461 -0.43845,-1.00217 0,-0.80282 0.64178,-1.47196 1.44061,-1.47187 z"
         style="fill:#000000;fill-opacity:1;stroke:none"
         id="path4784"
         inkscape:connector-curvature="0" />
      <path
         inkscape:connector-curvature="0"
         id="path4786"
         style="fill:#000000;fill-opacity:1;stroke:none"
         d="m 536.32792,243.5676 c -1.90491,0 -3.4762,1.57083 -3.4762,3.47623 0,0.44246 0.12745,0.83822 0.28182,1.22134 -2.34165,0.90375 -4.07326,2.70052 -5.1674,4.79163 -1.29417,2.47343 -1.84771,5.29021 -1.84771,7.64147 0,4.16338 -4.19654,7.54737 -4.19654,7.54757 a 1.0121253,1.0121253 0 0 0 -0.40714,0.78289 l 0,3.82073 a 1.0121253,1.0121253 0 0 0 1.00217,1.03353 l 10.52268,0 c -0.0309,0.1826 -0.18788,0.30897 -0.18788,0.50109 0,1.9053 1.58385,3.44512 3.4762,3.44482 1.89241,0 3.47627,-1.53972 3.47627,-3.44482 0,-0.19222 -0.15705,-0.31829 -0.18795,-0.50109 l 10.49137,0 a 1.0121253,1.0121253 0 0 0 1.03348,-1.03353 l 0,-3.82073 a 1.0121253,1.0121253 0 0 0 -0.40708,-0.78289 c 0,0 -4.22786,-3.38419 -4.22786,-7.54757 0,-2.35126 -0.52222,-5.16804 -1.81645,-7.64147 -1.09409,-2.09111 -2.8257,-3.88758 -5.1674,-4.79163 0.15437,-0.38303 0.28189,-0.77888 0.28189,-1.22134 0,-1.9054 -1.57129,-3.47623 -3.47627,-3.47623 z m 0,2.00436 c 0.7988,0 1.44062,0.66905 1.44062,1.47187 0,0.39756 -0.17603,0.72146 -0.46977,1.00217 a 1.0121253,1.0121253 0 0 0 0.50109,1.72241 c 2.35408,0.48294 3.97008,2.11917 5.07345,4.22791 1.10337,2.10865 1.6285,4.67247 1.6285,6.70195 0,5.01722 3.91961,8.20188 4.60364,8.73754 l 0,2.4115 -10.86714,0 a 1.0121253,1.0121253 0 0 0 -0.78297,1.62851 c 0.19562,0.25204 0.3132,0.58516 0.3132,0.90826 0,0.80262 -0.62925,1.40923 -1.44062,1.40923 -0.81137,0 -1.44062,-0.6064 -1.44062,-1.40923 0,-0.3231 0.11758,-0.65622 0.3132,-0.90826 a 1.0121253,1.0121253 0 0 0 -0.81423,-1.62851 l -10.83587,0 0,-2.4115 c 0.68402,-0.53566 4.60369,-3.72032 4.60369,-8.73754 0,-2.02948 0.49382,-4.5933 1.59719,-6.70195 1.10336,-2.10874 2.75062,-3.74507 5.10471,-4.22791 a 1.0121253,1.0121253 0 0 0 0.46977,-1.72241 c -0.29374,-0.28071 -0.43846,-0.60461 -0.43846,-1.00217 0,-0.80282 0.64182,-1.47196 1.44062,-1.47187 z" />
      <path
         inkscape:connector-curvature="0"
         id="path4794"
         style="fill:#000000;fill-opacity:1;stroke:none"
         d="m 104.12381,336.83995 c -1.90495,0 -3.47624,1.57083 -3.47624,3.47624 0,0.44246 0.12748,0.83821 0.28185,1.22133 -2.341672,0.90375 -4.073273,2.70052 -5.16738,4.79163 -1.29422,2.47343 -1.847735,5.29021 -1.847735,7.64148 0,4.16337 -4.196547,7.54736 -4.196547,7.54757 a 1.0121253,1.0121253 0 0 0 -0.407132,0.78288 l 0,3.82074 a 1.0121253,1.0121253 0 0 0 1.002162,1.03353 l 10.522682,0 c -0.0309,0.18259 -0.1879,0.30896 -0.1879,0.50107 0,1.90531 1.58385,3.44514 3.47624,3.44483 1.89238,0 3.47624,-1.53972 3.47624,-3.44483 0,-0.19221 -0.15704,-0.31828 -0.1879,-0.50107 l 10.49137,0 a 1.0121253,1.0121253 0 0 0 1.03348,-1.03353 l 0,-3.82074 a 1.0121253,1.0121253 0 0 0 -0.40714,-0.78288 c 0,0 -4.22786,-3.3842 -4.22786,-7.54757 0,-2.35127 -0.52221,-5.16805 -1.81642,-7.64148 -1.0941,-2.09111 -2.8257,-3.88758 -5.16738,-4.79163 0.15436,-0.38303 0.28185,-0.77887 0.28185,-1.22133 0,-1.90541 -1.57129,-3.47624 -3.47624,-3.47624 z m 0,2.00437 c 0.79882,0 1.4406,0.66904 1.4406,1.47187 0,0.39756 -0.17602,0.72145 -0.46976,1.00216 a 1.0121253,1.0121253 0 0 0 0.50109,1.72241 c 2.35411,0.48294 3.97006,2.11917 5.07343,4.22792 1.10337,2.10864 1.62851,4.67247 1.62851,6.70195 0,5.01721 3.91963,8.20187 4.60367,8.73753 l 0,2.41149 -10.86717,0 a 1.0121253,1.0121253 0 0 0 -0.78294,1.62852 c 0.19561,0.25204 0.31317,0.58516 0.31317,0.90825 0,0.80263 -0.62922,1.40925 -1.4406,1.40925 -0.81138,0 -1.44061,-0.60641 -1.44061,-1.40925 0,-0.32309 0.11757,-0.65621 0.31317,-0.90825 a 1.0121253,1.0121253 0 0 0 -0.81424,-1.62852 l -10.835862,0 0,-2.41149 c 0.684043,-0.53566 4.60367,-3.72032 4.60367,-8.73753 0,-2.02948 0.493829,-4.59331 1.597192,-6.70195 1.103373,-2.10875 2.75064,-3.74507 5.10476,-4.22792 a 1.0121253,1.0121253 0 0 0 0.46976,-1.72241 c -0.29373,-0.28071 -0.43845,-0.6046 -0.43845,-1.00216 0,-0.80283 0.64179,-1.47197 1.44061,-1.47187 z" />
      <path
         d="m 697.93644,243.5676 c -1.90491,0 -3.4762,1.57083 -3.4762,3.47623 0,0.44246 0.12745,0.83822 0.28182,1.22134 -2.34165,0.90375 -4.07326,2.70052 -5.1674,4.79163 -1.29417,2.47343 -1.84771,5.29021 -1.84771,7.64147 0,4.16338 -4.19654,7.54737 -4.19654,7.54757 a 1.0121253,1.0121253 0 0 0 -0.40714,0.78289 l 0,3.82073 a 1.0121253,1.0121253 0 0 0 1.00217,1.03353 l 10.52268,0 c -0.0309,0.1826 -0.18788,0.30897 -0.18788,0.50109 0,1.9053 1.58385,3.44512 3.4762,3.44482 1.89241,0 3.47627,-1.53972 3.47627,-3.44482 0,-0.19222 -0.15705,-0.31829 -0.18795,-0.50109 l 10.49137,0 a 1.0121253,1.0121253 0 0 0 1.03348,-1.03353 l 0,-3.82073 a 1.0121253,1.0121253 0 0 0 -0.40708,-0.78289 c 0,0 -4.22786,-3.38419 -4.22786,-7.54757 0,-2.35126 -0.52222,-5.16804 -1.81645,-7.64147 -1.09409,-2.09111 -2.8257,-3.88758 -5.1674,-4.79163 0.15437,-0.38303 0.28189,-0.77888 0.28189,-1.22134 0,-1.9054 -1.57129,-3.47623 -3.47627,-3.47623 z m 0,2.00436 c 0.7988,0 1.44062,0.66905 1.44062,1.47187 0,0.39756 -0.17603,0.72146 -0.46977,1.00217 a 1.0121253,1.0121253 0 0 0 0.50109,1.72241 c 2.35408,0.48294 3.97008,2.11917 5.07345,4.22791 1.10337,2.10865 1.6285,4.67247 1.6285,6.70195 0,5.01722 3.91961,8.20188 4.60364,8.73754 l 0,2.4115 -10.86714,0 a 1.0121253,1.0121253 0 0 0 -0.78297,1.62851 c 0.19562,0.25204 0.3132,0.58516 0.3132,0.90826 0,0.80262 -0.62925,1.40923 -1.44062,1.40923 -0.81137,0 -1.44062,-0.6064 -1.44062,-1.40923 0,-0.3231 0.11758,-0.65622 0.3132,-0.90826 a 1.0121253,1.0121253 0 0 0 -0.81423,-1.62851 l -10.83587,0 0,-2.4115 c 0.68402,-0.53566 4.60369,-3.72032 4.60369,-8.73754 0,-2.02948 0.49382,-4.5933 1.59719,-6.70195 1.10336,-2.10874 2.75062,-3.74507 5.10471,-4.22791 a 1.0121253,1.0121253 0 0 0 0.46977,-1.72241 c -0.29374,-0.28071 -0.43846,-0.60461 -0.43846,-1.00217 0,-0.80282 0.64182,-1.47196 1.44062,-1.47187 z"
         style="fill:#000000;fill-opacity:1;stroke:none"
         id="path4832"
         inkscape:connector-curvature="0" />
    </g>
    <text
       xml:space="preserve"
       style="font-size:28.20228004px;font-style:normal;font-variant:normal;font-weight:normal;font-stretch:normal;line-height:125%;letter-spacing:0px;word-spacing:0px;fill:#000000;fill-opacity:1;stroke:none;font-family:DejaVu Sans;-inkscape-font-specification:DejaVu Sans"
       x="510.75681"
       y="-398.54474"
       id="text3012"
       sodipodi:linespacing="125%"
       transform="matrix(0,1,-1,0,0,0)"><tspan
         sodipodi:role="line"
         id="tspan3014"
         x="510.75681"
         y="-398.54474">(min 4 digits)</tspan></text>
  </g>
</svg>
